<svg xmlns="http://www.w3.org/2000/svg" width="26" height="26" viewBox="0 0 26 26">
    <g fill="none" fill-rule="evenodd">
        <g>
            <g>
                <g>
                    <g>
                        <g transform="translate(-45 -554) translate(0 297) translate(32 161) translate(12.593 95.25) translate(.927 .779)">
                            <circle cx="12.5" cy="12.5" r="12.5" fill="#E4572E"/>
                            <g fill="#FFF" fill-rule="nonzero">
                                <path d="M10.833 0H1.548C.7 0 0 .73 0 1.61v8.047c0 .88.701 1.61 1.548 1.61h9.285c.847 0 1.548-.73 1.548-1.61V1.61c0-.88-.701-1.61-1.548-1.61zM2.708 1.61c.63 0 1.161.553 1.161 1.207s-.532 1.207-1.16 1.207c-.63 0-1.161-.553-1.161-1.207s.507-1.207 1.16-1.207zm8.077 7.846c-.073.126-.193.201-.339.201H1.983c-.145 0-.29-.075-.339-.226-.072-.126-.048-.302.025-.403L3.36 6.614c.073-.126.194-.176.315-.176.12 0 .241.05.314.176l.774 1.107L7.037 4.2c.072-.1.193-.176.314-.176s.242.075.315.176l3.095 4.828c.097.126.097.277.024.428z"
                                      transform="translate(5.804 6.867)"/>
                            </g>
                        </g>
                    </g>
                </g>
            </g>
        </g>
    </g>
</svg>
