<svg xmlns="http://www.w3.org/2000/svg" width="26" height="26" viewBox="0 0 26 26">
    <g fill="none" fill-rule="evenodd">
        <g>
            <g>
                <g>
                    <g>
                        <g>
                            <g transform="translate(-282 -460) translate(0 297) translate(32 161) translate(240.589 1.25) translate(10) translate(0 1.48)">
                                <circle cx="12.5" cy="12.5" r="12.5" fill="#E4572E"/>
                                <path fill="#FFF" fill-rule="nonzero"
                                      d="M17.708 7.5H7.292c-.575 0-1.042.323-1.042.721v.24h12.5v-.24c0-.398-.467-.721-1.042-.721zM6.25 16.066c0 .58.467 1.05 1.042 1.05h10.416c.575 0 1.042-.47 1.042-1.05V9.423H6.25v6.643zm7.692-5.441c0-.132.087-.24.193-.24h3.461c.106 0 .192.108.192.24v.48c0 .133-.086.241-.192.241h-3.461c-.106 0-.193-.108-.193-.24v-.481zm0 1.923c0-.132.087-.24.193-.24h3.461c.106 0 .192.108.192.24v.48c0 .133-.086.241-.192.241h-3.461c-.106 0-.193-.108-.193-.24v-.48zm0 .962c0-.133.087-.24.193-.24h3.461c.106 0 .192.107.192.24v.48c0 .133-.086.24-.192.24h-3.461c-.106 0-.193-.107-.193-.24v-.48zm-4.327-2.164c.796 0 1.443.647 1.443 1.442 0 .796-.647 1.443-1.443 1.443-.795 0-1.442-.647-1.442-1.443 0-.795.647-1.442 1.442-1.442zm-2.388 3.549c.184-.386.713-.664 1.336-.664h.18c.27.076.563.12.872.12.31 0 .606-.044.873-.12h.18c.623 0 1.152.278 1.336.664.07.149-.114.297-.342.297H7.569c-.228 0-.413-.15-.342-.297z"/>
                            </g>
                        </g>
                    </g>
                </g>
            </g>
        </g>
    </g>
</svg>
