<svg xmlns="http://www.w3.org/2000/svg" width="26" height="26" viewBox="0 0 26 26">
    <defs>
        <filter id="co5i8r96qa">
            <feColorMatrix in="SourceGraphic"
                           values="0 0 0 0 1.000000 0 0 0 0 1.000000 0 0 0 0 1.000000 0 0 0 1.000000 0"/>
        </filter>
    </defs>
    <g fill="none" fill-rule="evenodd">
        <g>
            <g>
                <g>
                    <g>
                        <g>
                            <g transform="translate(-520 -507) translate(0 297) translate(32 161) translate(479.03 48.25) translate(9) translate(.927 .779)">
                                <circle cx="12.5" cy="12.5" r="12.5" fill="#E4572E"/>
                                <g filter="url(#co5i8r96qa)">
                                    <g>
                                        <path fill="#000" fill-rule="nonzero"
                                              d="M8.531 1.625H6.5C6.5.729 5.771 0 4.875 0S3.25.729 3.25 1.625H1.219C.546 1.625 0 2.171 0 2.844v8.937C0 12.454.546 13 1.219 13H8.53c.673 0 1.219-.546 1.219-1.219V2.844c0-.673-.546-1.219-1.219-1.219zm-3.656-.61c.338 0 .61.272.61.61 0 .338-.272.61-.61.61-.338 0-.61-.272-.61-.61 0-.338.272-.61.61-.61zm3.077 5.886l-3.63 3.6c-.12.12-.313.117-.432-.002L1.793 8.384c-.12-.12-.117-.312.002-.432l.721-.716c.12-.119.313-.116.432.003l1.168 1.178 2.691-2.671c.12-.12.313-.117.432.002l.716.722c.12.121.117.312-.003.431z"
                                              transform="translate(7.5 5)"/>
                                    </g>
                                </g>
                            </g>
                        </g>
                    </g>
                </g>
            </g>
        </g>
    </g>
</svg>
