<svg xmlns="http://www.w3.org/2000/svg" width="26" height="26" viewBox="0 0 26 26">
    <g fill="none" fill-rule="evenodd">
        <g>
            <g>
                <g>
                    <g>
                        <g>
                            <g transform="translate(-521 -459) translate(0 297) translate(32 161) translate(479.03 .25) translate(10) translate(0 1.48)">
                                <circle cx="12.5" cy="12.5" r="12.5" fill="#E4572E"/>
                                <g fill="#FFF" fill-rule="nonzero">
                                    <path d="M0 10.357c0 .592.48 1.072 1.071 1.072H8.93c.591 0 1.071-.48 1.071-1.072V4.286H0v6.071zm7.143-4.375c0-.147.12-.268.268-.268h.893c.147 0 .267.12.267.268v.893c0 .147-.12.268-.267.268H7.41c-.148 0-.268-.12-.268-.268v-.893zm0 2.857c0-.147.12-.268.268-.268h.893c.147 0 .267.121.267.268v.893c0 .147-.12.268-.267.268H7.41c-.148 0-.268-.12-.268-.268V8.84zM4.286 5.982c0-.147.12-.268.268-.268h.892c.148 0 .268.12.268.268v.893c0 .147-.12.268-.268.268h-.892c-.148 0-.268-.12-.268-.268v-.893zm0 2.857c0-.147.12-.268.268-.268h.892c.148 0 .268.121.268.268v.893c0 .147-.12.268-.268.268h-.892c-.148 0-.268-.12-.268-.268V8.84zM1.429 5.982c0-.147.12-.268.267-.268h.893c.148 0 .268.12.268.268v.893c0 .147-.12.268-.268.268h-.893c-.147 0-.267-.12-.267-.268v-.893zm0 2.857c0-.147.12-.268.267-.268h.893c.148 0 .268.121.268.268v.893c0 .147-.12.268-.268.268h-.893c-.147 0-.267-.12-.267-.268V8.84zm7.5-7.41H7.857V.357C7.857.161 7.697 0 7.5 0h-.714c-.197 0-.357.16-.357.357V1.43H3.57V.357c0-.196-.16-.357-.357-.357H2.5c-.196 0-.357.16-.357.357V1.43H1.07C.48 1.429 0 1.909 0 2.5v1.071h10V2.5c0-.592-.48-1.071-1.071-1.071z"
                                          transform="translate(7.5 6.25)"/>
                                </g>
                            </g>
                        </g>
                    </g>
                </g>
            </g>
        </g>
    </g>
</svg>
