<svg xmlns="http://www.w3.org/2000/svg" width="26" height="26" viewBox="0 0 26 26">
    <g fill="none" fill-rule="evenodd">
        <g>
            <g>
                <g>
                    <g>
                        <g>
                            <g transform="translate(-282 -507) translate(0 297) translate(32 161) translate(240.589 48.25) translate(9) translate(.871 .779)">
                                <circle cx="12.5" cy="12.5" r="12.5" fill="#E4572E"/>
                                <g fill="#FFF" fill-rule="nonzero">
                                    <path d="M12.5 4.297c0 2.373-1.924 4.297-4.297 4.297-.274 0-.542-.026-.801-.075l-.587.66c-.11.124-.27.196-.437.196h-.91v.977c0 .323-.262.585-.585.585h-.977v.977c0 .324-.262.586-.586.586H.586c-.324 0-.586-.262-.586-.586v-1.906c0-.155.062-.304.172-.414l3.95-3.95c-.14-.424-.216-.877-.216-1.347C3.906 1.924 5.83 0 8.203 0c2.38 0 4.297 1.917 4.297 4.297zM8.203 3.125c0 .647.525 1.172 1.172 1.172.647 0 1.172-.525 1.172-1.172 0-.647-.525-1.172-1.172-1.172-.647 0-1.172.525-1.172 1.172z"
                                          transform="translate(6.25 6.25)"/>
                                </g>
                            </g>
                        </g>
                    </g>
                </g>
            </g>
        </g>
    </g>
</svg>
