<svg xmlns="http://www.w3.org/2000/svg" width="25" height="24" viewBox="0 0 25 24">
    <defs>
        <filter id="pg7fz5bo2a">
            <feColorMatrix in="SourceGraphic"
                           values="0 0 0 0 1.000000 0 0 0 0 1.000000 0 0 0 0 1.000000 0 0 0 1.000000 0"/>
        </filter>
    </defs>
    <g fill="none" fill-rule="evenodd">
        <g>
            <g>
                <g>
                    <g>
                        <path d="M0.527 0.064H23.527V23.064H0.527z"
                              transform="translate(-36 -131) translate(36.687 88) translate(0 1.75) translate(0 41.25)"/>
                        <g filter="url(#pg7fz5bo2a)"
                           transform="translate(-36 -131) translate(36.687 88) translate(0 1.75) translate(0 41.25)">
                            <g>
                                <path fill="#000" fill-rule="nonzero"
                                      d="M.536 3.218h13.945c.296 0 .536-.24.536-.536V.536c0-.296-.24-.536-.536-.536H.536C.24 0 0 .24 0 .536v2.146c0 .296.24.536.536.536zM16.626 5.9H2.682c-.297 0-.537.24-.537.536v2.145c0 .297.24.537.537.537h13.944c.297 0 .537-.24.537-.537V6.436c0-.296-.24-.536-.537-.536zm-2.145 5.9H.536c-.296 0-.536.24-.536.536v2.145c0 .296.24.536.536.536h13.945c.296 0 .536-.24.536-.536v-2.145c0-.297-.24-.537-.536-.537z"
                                      transform="matrix(1 0 0 -1 3.392 19.072)"/>
                            </g>
                        </g>
                    </g>
                </g>
            </g>
        </g>
    </g>
</svg>
