<svg xmlns="http://www.w3.org/2000/svg" width="24" height="25" viewBox="0 0 24 25">
    <g fill="none" fill-rule="evenodd">
        <g>
            <g>
                <g>
                    <g>
                        <path d="M0 0.18H23V23.18H0z"
                              transform="translate(-37 -215) translate(36.687 88) translate(0 1.75) translate(.76 125.89)"/>
                        <g fill="#FFF" fill-rule="nonzero">
                            <path d="M0 17.492c0 1 .81 1.81 1.81 1.81h13.27c.998 0 1.809-.81 1.809-1.81V7.238H0v10.254zm12.063-7.389c0-.249.204-.452.453-.452h1.508c.249 0 .452.203.452.452v1.508c0 .249-.203.452-.452.452h-1.508c-.249 0-.453-.203-.453-.452v-1.508zm0 4.826c0-.25.204-.453.453-.453h1.508c.249 0 .452.204.452.453v1.508c0 .248-.203.452-.452.452h-1.508c-.249 0-.453-.204-.453-.452v-1.508zm-4.825-4.826c0-.249.204-.452.452-.452h1.508c.25 0 .453.203.453.452v1.508c0 .249-.204.452-.453.452H7.69c-.248 0-.452-.203-.452-.452v-1.508zm0 4.826c0-.25.204-.453.452-.453h1.508c.25 0 .453.204.453.453v1.508c0 .248-.204.452-.453.452H7.69c-.248 0-.452-.204-.452-.452v-1.508zm-4.825-4.826c0-.249.203-.452.452-.452h1.508c.249 0 .452.203.452.452v1.508c0 .249-.203.452-.452.452H2.865c-.249 0-.452-.203-.452-.452v-1.508zm0 4.826c0-.25.203-.453.452-.453h1.508c.249 0 .452.204.452.453v1.508c0 .248-.203.452-.452.452H2.865c-.249 0-.452-.204-.452-.452v-1.508zM15.079 2.413h-1.81V.603C13.27.271 13 0 12.668 0H11.46c-.331 0-.603.271-.603.603v1.81H6.032V.603C6.032.271 5.76 0 5.429 0H4.222C3.89 0 3.62.271 3.62.603v1.81h-1.81C.812 2.413 0 3.223 0 4.223v1.809h16.889v-1.81c0-.999-.81-1.81-1.81-1.81z"
                                  transform="translate(-37 -215) translate(36.687 88) translate(0 1.75) translate(.76 125.89) translate(2.864 1.68)"/>
                        </g>
                    </g>
                </g>
            </g>
        </g>
    </g>
</svg>
