<svg xmlns="http://www.w3.org/2000/svg" width="24" height="24" viewBox="0 0 24 24">
    <defs>
        <filter id="vvyo5tiyca">
            <feColorMatrix in="SourceGraphic"
                           values="0 0 0 0 1.000000 0 0 0 0 1.000000 0 0 0 0 1.000000 0 0 0 1.000000 0"/>
        </filter>
    </defs>
    <g fill="none" fill-rule="evenodd">
        <g>
            <g>
                <g>
                    <g>
                        <path d="M0 0H23V23H0z"
                              transform="translate(-37 -89) translate(36.687 88) translate(0 1.75) translate(.758)"/>
                        <g filter="url(#vvyo5tiyca)"
                           transform="translate(-37 -89) translate(36.687 88) translate(0 1.75) translate(.758)">
                            <g>
                                <path fill="#000" fill-rule="nonzero"
                                      d="M5.037 6.206v2.699c0 .447-.362.81-.81.81H.81c-.448 0-.81-.363-.81-.81V6.206c0-.447.362-.81.81-.81h3.418c.447 0 .81.363.81.81zM0 11.603v2.699c0 .447.362.81.81.81h3.418c.447 0 .81-.363.81-.81v-2.699c0-.447-.363-.81-.81-.81H.81c-.448 0-.81.363-.81.81zM4.228 0H.81C.362 0 0 .362 0 .81v2.698c0 .447.362.81.81.81h3.418c.447 0 .81-.363.81-.81V.81c0-.448-.363-.81-.81-.81zm2.698 15.111h9.534c.448 0 .81-.362.81-.81v-2.698c0-.447-.362-.81-.81-.81H6.926c-.447 0-.81.363-.81.81v2.699c0 .447.363.81.81.81zM6.116.81v2.698c0 .447.363.81.81.81h9.534c.448 0 .81-.363.81-.81V.81c0-.448-.362-.81-.81-.81H6.926c-.447 0-.81.362-.81.81zm.81 8.904h9.534c.448 0 .81-.362.81-.81V6.207c0-.447-.362-.81-.81-.81H6.926c-.447 0-.81.363-.81.81v2.699c0 .447.363.81.81.81z"
                                      transform="translate(2.865 3.944)"/>
                            </g>
                        </g>
                    </g>
                </g>
            </g>
        </g>
    </g>
</svg>
