<svg xmlns="http://www.w3.org/2000/svg" width="25" height="24" viewBox="0 0 25 24">
    <g fill="none" fill-rule="evenodd">
        <g>
            <g>
                <g>
                    <g>
                        <path d="M0.488 0.25H23.488V23.25H0.488z"
                              transform="translate(-36 -173) translate(36.687 88) translate(0 1.75) translate(0 83.25)"/>
                        <path fill="#FFF" fill-rule="nonzero"
                              d="M7.738 11.75c2.055 0 3.719-1.663 3.719-3.719 0-2.055-1.664-3.719-3.72-3.719-2.054 0-3.718 1.664-3.718 3.72 0 2.055 1.664 3.718 3.719 3.718zm2.55 1.063h-.276c-.69.332-1.457.53-2.274.53s-1.58-.198-2.275-.53h-.275c-2.112 0-3.825 1.713-3.825 3.824v.957c0 .88.714 1.593 1.594 1.593h9.562c.88 0 1.594-.713 1.594-1.593v-.957c0-2.111-1.713-3.825-3.825-3.825zM17.3 11.75c1.76 0 3.188-1.428 3.188-3.188 0-1.76-1.428-3.187-3.188-3.187-1.76 0-3.187 1.428-3.187 3.188 0 1.76 1.428 3.187 3.187 3.187zm1.594 1.063h-.126c-.462.159-.95.265-1.468.265s-1.006-.106-1.467-.265h-.126c-.678 0-1.302.195-1.85.51.81.874 1.318 2.033 1.318 3.314v1.276c0 .073-.016.142-.02.212h5.864c.88 0 1.594-.714 1.594-1.594 0-2.055-1.664-3.718-3.719-3.718z"
                              transform="translate(-36 -173) translate(36.687 88) translate(0 1.75) translate(0 83.25)"/>
                    </g>
                </g>
            </g>
        </g>
    </g>
</svg>
